<?xml version="1.0" standalone="no"?>
<!DOCTYPE svg PUBLIC "-//W3C//DTD SVG 20010904//EN"
 "http://www.w3.org/TR/2001/REC-SVG-20010904/DTD/svg10.dtd">
<svg version="1.0" xmlns="http://www.w3.org/2000/svg"
 width="250.000000pt" height="250.000000pt" viewBox="0 0 250.000000 250.000000"
 preserveAspectRatio="xMidYMid meet">
<metadata>
Created by potrace 1.16, written by Peter Selinger 2001-2019
</metadata>
<g transform="translate(0.000000,250.000000) scale(0.053648,-0.053648)"
fill="#000000" stroke="none">
<path d="M647 4644 c-322 -58 -576 -317 -632 -641 -14 -79 -15 -287 -13 -1719
l3 -1629 23 -73 c88 -285 305 -494 581 -559 71 -17 177 -18 1731 -18 l1655 0
78 23 c275 79 473 276 559 554 l23 73 3 1629 c3 1797 5 1728 -59 1882 -80 192
-215 333 -401 418 -165 77 -2 70 -1833 72 -1383 2 -1652 0 -1718 -12z m3361
-89 c46 -9 115 -34 172 -62 79 -38 109 -60 181 -132 72 -72 94 -102 132 -181
82 -168 77 -47 77 -1850 0 -1803 5 -1682 -77 -1850 -38 -79 -60 -109 -132
-181 -72 -72 -102 -94 -181 -132 -168 -82 -47 -77 -1850 -77 -1803 0 -1682 -5
-1850 77 -79 38 -109 60 -181 132 -72 72 -94 102 -132 181 -82 168 -77 47 -77
1850 0 1803 -5 1682 77 1850 38 79 60 109 132 181 72 72 102 94 181 132 164
80 41 75 1843 76 1404 1 1618 -1 1685 -14z"/>
<path d="M933 4450 c-26 -11 -43 -40 -43 -74 0 -63 89 -90 129 -40 27 34 26
57 -1 88 -27 29 -55 38 -85 26z"/>
<path d="M1170 4453 c-33 -12 -50 -37 -50 -74 0 -43 27 -69 70 -69 43 0 70 26
70 69 0 51 -47 90 -90 74z"/>
<path d="M1614 4449 c-22 -11 -44 -48 -44 -73 0 -7 9 -25 21 -40 41 -52 129
-22 129 45 0 53 -59 91 -106 68z"/>
<path d="M2073 4450 c-26 -11 -43 -40 -43 -74 0 -63 89 -90 129 -40 28 36 26
60 -8 95 -31 31 -42 33 -78 19z"/>
<path d="M2310 4453 c-33 -12 -50 -37 -50 -74 0 -43 27 -69 70 -69 43 0 70 26
70 69 0 51 -47 90 -90 74z"/>
<path d="M2754 4449 c-22 -11 -44 -48 -44 -73 0 -7 9 -25 21 -40 41 -52 129
-22 129 45 0 53 -59 91 -106 68z"/>
<path d="M2983 4450 c-45 -18 -57 -81 -23 -118 30 -32 82 -30 109 4 12 15 21
33 21 40 0 26 -23 62 -47 73 -28 13 -30 13 -60 1z"/>
<path d="M3220 4453 c-51 -19 -68 -85 -30 -123 63 -63 168 27 108 93 -25 27
-54 38 -78 30z"/>
<path d="M3450 4453 c-53 -19 -70 -98 -28 -127 53 -37 118 -5 118 57 0 47 -49
85 -90 70z"/>
<path d="M455 4205 c-14 -13 -25 -36 -25 -50 0 -35 42 -75 78 -75 36 0 72 37
72 74 0 34 -41 76 -75 76 -14 0 -37 -11 -50 -25z"/>
<path d="M1146 4209 c-52 -41 -23 -129 44 -129 69 0 97 80 44 128 -31 27 -54
28 -88 1z"/>
<path d="M1825 4205 c-47 -46 -17 -125 49 -125 34 0 76 41 76 75 0 33 -42 75
-75 75 -14 0 -37 -11 -50 -25z"/>
<path d="M2286 4209 c-52 -41 -23 -129 44 -129 67 0 96 88 44 129 -15 12 -34
21 -44 21 -10 0 -29 -9 -44 -21z"/>
<path d="M2523 4218 c-48 -23 -51 -103 -4 -127 80 -43 155 63 85 118 -29 23
-48 25 -81 9z"/>
<path d="M2735 4205 c-14 -13 -25 -36 -25 -50 0 -35 42 -75 79 -75 35 0 71 39
71 77 0 32 -42 73 -75 73 -14 0 -37 -11 -50 -25z"/>
<path d="M3196 4209 c-50 -40 -22 -129 42 -129 81 0 108 106 36 139 -35 16
-48 14 -78 -10z"/>
<path d="M3426 4208 c-53 -48 -25 -128 44 -128 67 0 96 88 44 129 -34 27 -57
26 -88 -1z"/>
<path d="M3664 4218 c-22 -10 -44 -47 -44 -74 0 -25 47 -64 78 -64 65 0 97 89
46 129 -29 23 -48 25 -80 9z"/>
<path d="M685 3975 c-14 -13 -25 -36 -25 -50 0 -33 42 -75 75 -75 33 0 75 42
75 75 0 33 -42 75 -75 75 -14 0 -37 -11 -50 -25z"/>
<path d="M912 3977 c-31 -33 -29 -80 4 -106 54 -42 118 -13 118 54 0 68 -77
100 -122 52z"/>
<path d="M1142 3980 c-32 -30 -30 -82 4 -109 31 -24 43 -26 78 -10 34 16 47
57 31 96 -20 47 -75 58 -113 23z"/>
<path d="M1373 3985 c-29 -20 -37 -59 -19 -94 24 -46 67 -54 110 -20 72 57
-15 167 -91 114z"/>
<path d="M2280 3980 c-30 -30 -27 -83 6 -109 15 -12 34 -21 44 -21 10 0 29 9
44 21 52 41 23 129 -44 129 -17 0 -39 -9 -50 -20z"/>
<path d="M2513 3985 c-29 -20 -37 -59 -19 -94 24 -46 67 -54 110 -20 72 57
-15 167 -91 114z"/>
<path d="M2735 3975 c-14 -13 -25 -36 -25 -50 0 -14 11 -37 25 -50 13 -14 36
-25 50 -25 14 0 37 11 50 25 14 13 25 36 25 50 0 14 -11 37 -25 50 -13 14 -36
25 -50 25 -14 0 -37 -11 -50 -25z"/>
<path d="M3192 3977 c-31 -33 -29 -80 4 -106 43 -34 86 -26 110 20 39 76 -56
148 -114 86z"/>
<path d="M3649 3981 c-49 -40 -18 -131 46 -131 37 0 75 37 75 74 0 64 -71 97
-121 57z"/>
<path d="M3875 3975 c-14 -13 -25 -36 -25 -50 0 -14 11 -37 25 -50 13 -14 36
-25 50 -25 14 0 37 11 50 25 14 13 25 36 25 50 0 14 -11 37 -25 50 -13 14 -36
25 -50 25 -14 0 -37 -11 -50 -25z"/>
<path d="M4332 3977 c-31 -33 -29 -80 4 -106 44 -34 86 -26 110 21 39 75 -57
146 -114 85z"/>
<path d="M3190 3750 c-30 -30 -27 -83 6 -109 36 -29 60 -26 96 9 24 25 29 36
24 58 -14 58 -86 82 -126 42z"/>
<path d="M3871 3744 c-42 -54 -13 -118 54 -118 68 0 100 77 52 122 -33 31 -80
29 -106 -4z"/>
<path d="M4102 3747 c-55 -58 11 -153 81 -116 50 27 60 70 26 113 -27 34 -77
36 -107 3z"/>
<path d="M2321 3655 c-29 -8 -83 -30 -120 -49 -77 -39 -266 -100 -281 -91 -5
3 -10 33 -10 66 0 32 -4 59 -8 59 -5 0 -29 -20 -55 -45 -50 -50 -94 -130 -104
-188 -5 -32 -17 -48 -74 -95 -82 -69 -101 -105 -104 -192 -2 -52 -10 -81 -40
-145 -61 -129 -57 -171 31 -305 12 -19 25 -46 29 -60 4 -21 0 -27 -27 -40 -43
-20 -68 -66 -71 -131 -2 -49 0 -54 21 -57 20 -3 22 1 22 40 0 55 28 112 57
116 22 3 33 -9 54 -65 l10 -28 -28 28 c-39 36 -65 36 -30 0 26 -28 26 -28 10
-75 -11 -35 -12 -54 -5 -75 l10 -28 1 32 c1 40 18 86 30 79 5 -3 12 -35 16
-71 5 -53 11 -68 32 -85 33 -26 37 -21 24 27 -6 21 -11 108 -11 193 1 127 4
165 20 210 11 30 25 105 31 165 14 135 24 176 48 206 l19 23 40 -18 c52 -24
110 -17 161 18 l37 26 145 -10 c79 -6 197 -8 262 -4 115 7 118 6 143 -17 14
-13 36 -44 49 -69 32 -63 96 -272 82 -266 -57 24 -125 37 -161 32 -109 -17
-146 -38 -146 -82 0 -28 9 -29 80 -8 109 32 243 14 261 -35 28 -73 69 -138
113 -178 l49 -44 -6 -96 c-6 -104 -19 -133 -44 -95 -22 31 -34 27 -63 -18 -13
-22 -30 -40 -38 -40 -27 0 -127 30 -247 74 l-120 44 -5 94 c-6 105 -20 96 -20
-13 l0 -69 -57 0 c-64 0 -89 -7 -278 -75 -109 -39 -145 -48 -223 -53 -90 -5
-93 -6 -108 -33 -8 -16 -33 -38 -55 -50 -31 -15 -38 -24 -30 -32 6 -6 11 -21
11 -33 0 -13 18 -71 40 -131 22 -59 40 -116 40 -126 0 -30 -17 -54 -50 -67
-42 -17 -37 -49 10 -65 20 -7 41 -23 50 -41 20 -35 51 -38 65 -6 5 12 12 22
15 22 3 -1 27 -21 53 -45 32 -30 44 -47 35 -50 -65 -24 -296 -85 -321 -85 -49
0 -131 -45 -161 -88 -31 -45 -32 -54 -7 -69 16 -10 20 -9 25 10 12 48 99 114
136 104 19 -5 103 16 215 53 33 11 86 26 117 34 l58 15 92 -44 c57 -27 126
-50 179 -61 80 -15 92 -15 165 0 43 8 116 34 162 56 46 22 96 40 110 40 14 0
80 -18 147 -39 66 -22 149 -45 185 -52 36 -6 77 -16 93 -22 30 -11 77 -61 77
-82 0 -20 19 -28 35 -15 42 35 -75 150 -154 150 -17 0 -65 11 -108 24 -43 13
-113 34 -157 47 l-78 23 51 44 c61 52 117 144 162 264 29 78 34 86 48 74 9 -7
26 -17 38 -20 12 -4 25 -15 28 -26 15 -46 58 -48 69 -4 4 14 20 33 36 42 42
24 40 57 -4 72 -19 6 -38 21 -44 35 -16 36 -50 33 -64 -5 -5 -17 -23 -37 -38
-45 l-27 -14 18 64 c11 39 33 84 57 117 89 117 122 268 87 400 -6 24 -4 28 21
34 50 12 100 42 132 79 36 41 37 43 17 69 -22 29 -18 64 10 90 20 19 25 33 25
74 0 87 -20 109 -40 45 -41 -126 -130 -139 -195 -29 -19 32 -36 48 -69 60 -60
23 -90 58 -89 102 1 41 21 66 79 100 38 23 64 58 64 89 0 23 59 65 92 65 17 0
28 5 26 11 -4 12 -10 12 -60 -2 -66 -17 -113 3 -185 79 -35 37 -77 92 -94 122
-35 61 -96 130 -116 130 -8 0 -13 -13 -13 -35 l0 -35 -47 30 c-111 70 -260 96
-372 65z m780 -1194 c21 -71 -19 -241 -71 -302 -24 -28 -31 -31 -39 -19 -7 9
-6 19 2 30 10 13 10 13 -3 3 -9 -6 -21 -8 -28 -4 -11 6 -10 26 4 97 9 49 18
99 20 112 3 12 9 22 14 22 13 0 30 -70 24 -99 -4 -20 -3 -23 5 -11 14 19 14
86 1 110 -11 20 -2 43 30 81 22 26 28 23 41 -20z m-605 -243 c64 -25 83 -37
78 -48 -16 -37 -16 -140 0 -181 18 -45 108 -183 138 -212 25 -25 20 -38 -31
-66 -23 -13 -41 -25 -39 -27 2 -2 28 3 58 11 77 20 89 9 44 -45 -25 -29 -91
-70 -114 -70 -5 0 -10 7 -10 16 0 23 -40 101 -62 120 -16 16 -17 15 -13 -18
l5 -35 -53 -6 c-41 -4 -55 -2 -66 11 -12 15 -13 14 -7 -8 33 -121 21 -136
-104 -132 l-91 3 7 35 c7 38 -12 98 -28 87 -6 -3 -8 0 -6 8 6 17 -9 49 -23 49
-6 0 -7 -6 -4 -12 4 -7 0 -5 -8 5 -13 16 -14 16 -14 -8 0 -35 -6 -39 -64 -41
-39 -1 -49 2 -45 12 3 8 2 14 -2 14 -4 0 -15 13 -25 29 -9 16 -47 67 -84 113
-74 93 -123 188 -131 254 -5 50 -10 46 95 63 40 6 121 29 180 52 59 23 128 47
153 55 71 20 169 10 266 -28z m-714 -474 c7 -16 29 -34 53 -44 l40 -17 -37
-22 c-24 -15 -39 -32 -43 -52 -8 -37 -21 -37 -43 1 -10 17 -31 35 -49 41 -41
13 -42 23 -3 39 19 8 33 23 40 46 14 41 26 43 42 8z"/>
<path d="M680 3518 c-35 -38 -24 -93 23 -113 39 -16 80 -3 96 31 16 35 14 47
-10 78 -27 34 -79 36 -109 4z"/>
<path d="M3417 3522 c-23 -25 -22 -85 1 -105 25 -23 85 -22 105 1 23 25 22 85
-1 105 -25 23 -85 22 -105 -1z"/>
<path d="M3641 3514 c-27 -34 -26 -57 2 -90 46 -53 127 -23 127 47 0 66 -88
95 -129 43z"/>
<path d="M4330 3520 c-43 -43 -13 -120 48 -122 64 -2 100 75 57 122 -24 26
-79 26 -105 0z"/>
<path d="M474 3309 c-22 -11 -44 -48 -44 -73 0 -7 9 -25 21 -40 41 -52 129
-22 129 45 0 53 -59 91 -106 68z"/>
<path d="M933 3310 c-26 -11 -43 -40 -43 -74 0 -63 89 -90 129 -40 28 36 26
60 -8 95 -31 31 -42 33 -78 19z"/>
<path d="M4123 3310 c-45 -18 -57 -81 -23 -118 30 -32 82 -30 109 4 12 15 21
33 21 40 0 26 -23 62 -47 73 -28 13 -30 13 -60 1z"/>
<path d="M4360 3313 c-51 -19 -68 -85 -30 -123 26 -26 81 -26 105 0 28 31 24
79 -9 107 -27 23 -39 26 -66 16z"/>
<path d="M4336 3069 c-50 -40 -22 -129 42 -129 81 0 108 106 36 139 -35 16
-48 14 -78 -10z"/>
<path d="M237 2849 c-46 -27 -41 -105 9 -128 35 -16 48 -14 78 10 71 56 -8
164 -87 118z"/>
<path d="M685 2835 c-14 -13 -25 -36 -25 -50 0 -33 42 -75 75 -75 33 0 75 42
75 75 0 33 -42 75 -75 75 -14 0 -37 -11 -50 -25z"/>
<path d="M3875 2835 c-14 -13 -25 -36 -25 -50 0 -14 11 -37 25 -50 13 -14 36
-25 50 -25 14 0 37 11 50 25 14 13 25 36 25 50 0 14 -11 37 -25 50 -13 14 -36
25 -50 25 -14 0 -37 -11 -50 -25z"/>
<path d="M4332 2837 c-31 -33 -29 -80 4 -106 43 -34 86 -24 113 26 37 71 -62
138 -117 80z"/>
<path d="M1943 2753 c-38 -13 -113 -82 -113 -104 0 -5 23 3 50 17 69 35 139
41 220 19 114 -30 110 -30 110 -2 0 35 -22 54 -82 72 -64 19 -130 18 -185 -2z"/>
<path d="M3871 2604 c-34 -43 -26 -86 20 -110 35 -18 74 -10 94 19 53 76 -57
163 -114 91z"/>
<path d="M4102 2607 c-55 -58 6 -147 79 -117 25 11 49 46 49 74 0 7 -9 25 -21
40 -27 34 -77 36 -107 3z"/>
<path d="M4330 2610 c-30 -30 -27 -83 6 -109 36 -29 60 -26 96 9 24 25 29 36
24 58 -14 58 -86 82 -126 42z"/>
<path d="M1850 2498 c-19 -7 -35 -18 -35 -25 0 -7 17 -32 37 -56 l36 -44 133
-6 c73 -3 140 -2 148 3 43 25 43 25 20 64 -33 56 -67 69 -194 73 -71 2 -122
-1 -145 -9z"/>
<path d="M2570 2504 c-66 -13 -91 -27 -120 -69 l-30 -43 38 -20 c31 -16 47
-18 87 -11 28 4 84 8 126 8 72 1 76 2 105 34 59 63 59 64 23 83 -33 17 -176
28 -229 18z"/>
<path d="M225 2380 c-44 -48 -10 -120 56 -120 43 0 69 27 69 70 0 14 -7 36
-16 48 -20 29 -83 31 -109 2z"/>
<path d="M451 2374 c-12 -15 -21 -34 -21 -44 0 -10 9 -29 21 -44 41 -52 129
-23 129 44 0 67 -88 96 -129 44z"/>
<path d="M680 2380 c-44 -44 -11 -120 53 -120 38 0 50 7 66 38 14 27 8 63 -15
86 -22 23 -80 20 -104 -4z"/>
<path d="M474 2169 c-22 -11 -44 -48 -44 -73 0 -7 9 -25 21 -40 41 -52 129
-22 129 45 0 53 -59 91 -106 68z"/>
<path d="M3893 2170 c-70 -29 -45 -140 31 -140 39 0 76 35 76 72 0 51 -58 88
-107 68z"/>
<path d="M4123 2170 c-72 -29 -45 -140 34 -140 32 0 73 37 73 66 0 26 -23 62
-47 73 -28 13 -30 13 -60 1z"/>
<path d="M4336 2159 c-19 -15 -26 -30 -26 -55 0 -90 125 -101 146 -12 5 22 0
33 -24 58 -36 35 -60 38 -96 9z"/>
<path d="M243 1938 c-35 -17 -48 -60 -29 -96 24 -47 76 -57 114 -22 32 30 30
82 -4 109 -29 23 -48 25 -81 9z"/>
<path d="M4336 1929 c-34 -27 -36 -77 -3 -107 62 -58 152 11 113 87 -24 46
-67 54 -110 20z"/>
<path d="M681 1694 c-12 -15 -21 -38 -21 -51 0 -32 42 -73 75 -73 33 0 75 42
75 75 0 14 -11 37 -25 50 -33 34 -77 33 -104 -1z"/>
<path d="M3875 1695 c-14 -13 -25 -36 -25 -50 0 -33 42 -75 75 -75 33 0 75 41
75 73 0 68 -78 100 -125 52z"/>
<path d="M682 1467 c-58 -62 11 -152 87 -113 46 24 54 67 20 110 -27 34 -77
36 -107 3z"/>
<path d="M4330 1470 c-25 -25 -26 -81 -2 -103 9 -8 29 -19 44 -22 22 -6 33 -1
59 24 25 26 30 37 24 59 -3 15 -14 35 -22 45 -22 23 -78 22 -103 -3z"/>
<path d="M254 1259 c-48 -17 -63 -81 -29 -119 40 -45 125 -12 125 48 0 54 -48
89 -96 71z"/>
<path d="M3901 1258 c-52 -19 -65 -68 -30 -112 55 -69 161 5 119 84 -13 25
-59 39 -89 28z"/>
<path d="M4352 1259 c-43 -16 -56 -85 -22 -119 26 -26 81 -26 105 0 52 57 -10
146 -83 119z"/>
<path d="M906 1238 c-37 -53 -5 -118 58 -118 37 0 76 36 76 70 0 10 -9 29 -21
44 -27 35 -90 37 -113 4z"/>
<path d="M474 1028 c-22 -10 -44 -47 -44 -72 0 -30 41 -66 74 -66 68 0 99 78
51 125 -26 27 -47 30 -81 13z"/>
<path d="M703 1030 c-72 -30 -45 -140 34 -140 36 0 73 38 73 75 0 49 -59 85
-107 65z"/>
<path d="M1146 1019 c-52 -41 -23 -129 43 -129 70 0 100 81 47 127 -33 28 -56
29 -90 2z"/>
<path d="M1368 1010 c-24 -25 -29 -36 -24 -58 21 -89 146 -78 146 12 0 25 -7
40 -26 55 -36 29 -60 26 -96 -9z"/>
<path d="M4336 1019 c-19 -15 -26 -30 -26 -55 0 -90 125 -101 146 -12 5 22 0
33 -24 58 -36 35 -60 38 -96 9z"/>
<path d="M242 803 c-7 -3 -19 -18 -28 -35 -39 -75 57 -146 114 -85 56 60 -9
151 -86 120z"/>
<path d="M685 785 c-14 -13 -25 -36 -25 -50 0 -33 42 -75 75 -75 14 0 37 11
50 25 14 13 25 36 25 50 0 14 -11 37 -25 50 -13 14 -36 25 -50 25 -14 0 -37
-11 -50 -25z"/>
<path d="M916 789 c-34 -27 -36 -77 -3 -107 49 -46 121 -14 121 53 0 67 -64
96 -118 54z"/>
<path d="M1595 785 c-14 -13 -25 -36 -25 -50 0 -33 41 -75 73 -75 38 0 77 36
77 71 0 37 -40 79 -75 79 -14 0 -37 -11 -50 -25z"/>
<path d="M1825 785 c-14 -13 -25 -36 -25 -50 0 -33 42 -75 75 -75 33 0 75 42
75 75 0 33 -42 75 -75 75 -14 0 -37 -11 -50 -25z"/>
<path d="M2735 785 c-14 -13 -25 -36 -25 -50 0 -33 42 -75 75 -75 33 0 75 42
75 75 0 33 -42 75 -75 75 -14 0 -37 -11 -50 -25z"/>
<path d="M3196 789 c-34 -27 -36 -77 -3 -107 62 -58 152 11 113 87 -24 46 -67
54 -110 20z"/>
<path d="M3428 796 c-28 -21 -38 -58 -23 -92 31 -74 135 -50 135 31 0 57 -68
95 -112 61z"/>
<path d="M3649 791 c-51 -41 -17 -131 50 -131 65 0 95 89 45 129 -33 26 -65
27 -95 2z"/>
<path d="M3875 785 c-14 -13 -25 -36 -25 -50 0 -33 42 -75 75 -75 33 0 75 42
75 75 0 33 -42 75 -75 75 -14 0 -37 -11 -50 -25z"/>
<path d="M453 554 c-20 -20 -24 -31 -19 -57 12 -64 77 -87 121 -42 32 31 33
74 2 103 -31 30 -72 28 -104 -4z"/>
<path d="M911 556 c-49 -52 -1 -136 68 -121 20 4 37 17 46 35 21 40 19 57 -10
85 -31 32 -74 33 -104 1z"/>
<path d="M1140 560 c-30 -30 -27 -83 6 -109 34 -27 57 -26 88 2 53 47 25 127
-44 127 -17 0 -39 -9 -50 -20z"/>
<path d="M1595 555 c-45 -44 -22 -109 42 -121 67 -13 110 77 60 124 -31 29
-72 28 -102 -3z"/>
<path d="M1821 554 c-12 -15 -21 -38 -21 -51 0 -32 42 -73 75 -73 33 0 75 42
75 75 0 14 -11 37 -25 50 -33 34 -77 33 -104 -1z"/>
<path d="M2280 560 c-30 -30 -27 -83 6 -109 15 -12 34 -21 44 -21 10 0 29 9
44 21 52 41 23 129 -44 129 -17 0 -39 -9 -50 -20z"/>
<path d="M2735 555 c-14 -13 -25 -36 -25 -50 0 -33 42 -75 75 -75 35 0 75 42
75 78 0 36 -37 72 -74 72 -15 0 -37 -10 -51 -25z"/>
<path d="M2962 557 c-12 -13 -22 -36 -22 -51 0 -34 41 -76 75 -76 33 0 75 42
75 75 0 35 -42 75 -78 75 -17 0 -37 -9 -50 -23z"/>
<path d="M3192 557 c-31 -33 -29 -80 4 -106 15 -12 33 -21 40 -21 28 0 63 24
74 49 30 74 -64 136 -118 78z"/>
<path d="M3420 560 c-33 -33 -30 -75 6 -107 31 -28 54 -29 88 -2 52 41 23 129
-44 129 -17 0 -39 -9 -50 -20z"/>
<path d="M910 330 c-40 -40 -16 -112 42 -126 22 -5 33 0 58 24 35 36 38 60 9
96 -26 33 -79 36 -109 6z"/>
<path d="M1822 327 c-37 -39 -28 -88 20 -113 25 -13 35 -13 59 -3 52 21 63 68
28 113 -27 34 -77 36 -107 3z"/>
<path d="M2501 324 c-29 -36 -26 -60 9 -96 25 -24 36 -29 58 -24 89 21 78 146
-12 146 -25 0 -40 -7 -55 -26z"/>
<path d="M2960 328 c-53 -57 8 -148 81 -118 25 11 49 46 49 74 0 7 -9 25 -21
40 -27 34 -79 36 -109 4z"/>
<path d="M3190 330 c-25 -25 -26 -81 -2 -103 9 -8 29 -19 44 -22 22 -6 33 -1
59 24 25 26 30 37 24 59 -3 15 -14 35 -22 45 -22 23 -78 22 -103 -3z"/>
</g>
</svg>
